
<svg xmlns="http://www.w3.org/2000/svg" version="1.1" xmlns:xlink="http://www.w3.org/1999/xlink" preserveAspectRatio="none" x="0px" y="0px" width="40px" height="33px" viewBox="0 0 40 33">
<defs>
<g id="Layer0_0_FILL">
<path fill="#FFFFFF" stroke="none" d="
M 11.6 0
Q 0 8 0 21.5 0 26.6 2.7 29.6 5.2 32.45 8.95 32.45 12.15 32.45 14.4 30.2 16.65 27.95 16.65 24.75 16.65 21.5 14.6 19.4 12.65 17.3 9.7 17.3 8.95 17.3 7.75 17.6 8.7 9.65 16.95 4.25
L 11.6 0
M 40 4.25
L 34.6 0
Q 23 8 23 21.5 23 26.6 25.65 29.6 28.2 32.45 31.9 32.45 35.15 32.45 37.45 30.2 39.7 27.95 39.7 24.75 39.7 21.5 37.7 19.4 35.6 17.3 32.6 17.3
L 30.8 17.6
Q 31.75 9.65 40 4.25 Z"/>
</g>
</defs>

<g transform="matrix( 1, 0, 0, 1, 0,0) ">
<use xlink:href="#Layer0_0_FILL"/>
</g>
</svg>
